<svg xmlns="http://www.w3.org/2000/svg" x="0" y="0" viewBox="0 0 335.367 100" width="335.367" height="100"><defs><style>.SVG_logo_conoha-conoha{fill:#12b8d7}.SVG_logo_conoha-bygmo{fill:#005bac}.is-white .SVG_logo_conoha-conoha{fill:#fff}.is-white .SVG_logo_conoha-bygmo{fill:#fff}</style></defs><path class="SVG_logo_conoha-conoha" d="M87.396,78.872c-9.244,11.888-23.446,18.901-38.558,18.901C21.908,97.774,0,75.866,0,48.936S21.908.099,48.837.099c15.11,0,29.314,7.015,38.558,18.901-5.427,3.157-9.922,7.746-12.963,13.247l-.314-.461c-5.715-8.397-15.166-13.41-25.281-13.41-16.851,0-30.561,13.709-30.561,30.561s13.709,30.561,30.561,30.561c10.126,0,19.583-5.021,25.298-13.434l.298-.438c3.041,5.501,7.536,10.091,12.963,13.247ZM335.367,23.655v50.606h-14.772v-2.338c-3.327,1.548-6.966,2.356-10.667,2.356-9.467,0-17.737-5.219-22.088-12.93v36.524h-18.276v-39.798h-29.709v39.798h-18.276v-36.395c-4.37,7.64-12.6,12.801-22.016,12.801-9.467,0-17.737-5.219-22.087-12.93v13.297h-14.772v-25.709c0-5.829-4.741-10.571-10.57-10.571s-10.571,4.742-10.571,10.571v25.709h-14.771v-13.233c-4.36,7.677-12.61,12.867-22.052,12.867-13.974,0-25.343-11.369-25.343-25.342s11.369-25.343,25.343-25.343c10.813,0,20.064,6.808,23.697,16.362,3.633-9.554,12.884-16.362,23.697-16.362s20.095,6.83,23.715,16.409c3.62-9.579,12.885-16.409,23.714-16.409,9.415,0,17.646,5.161,22.016,12.801V0h18.276v39.798h29.709V0h18.276v36.524c4.351-7.711,12.621-12.931,22.088-12.931,3.701,0,7.34.809,10.667,2.357v-2.296h14.772ZM115.31,48.936c0-5.829-4.742-10.571-10.571-10.571s-10.571,4.742-10.571,10.571,4.742,10.571,10.571,10.571,10.571-4.743,10.571-10.571ZM210.134,48.936c0-5.829-4.742-10.571-10.571-10.571s-10.571,4.742-10.571,10.571,4.742,10.571,10.571,10.571,10.571-4.743,10.571-10.571ZM320.499,48.936c0-5.829-4.742-10.571-10.57-10.571s-10.571,4.742-10.571,10.571,4.741,10.571,10.571,10.571,10.57-4.743,10.57-10.571Z"/><path class="SVG_logo_conoha-bygmo" d="M114.439,89.683c-.825,0-1.58.292-2.181.853v-3.725h-1.789v10.605h1.789v-.776c.386.449,1.06,1.01,2.058,1.01,1.792,0,3.42-1.572,3.42-4.015,0-2.399-1.595-3.952-3.296-3.952ZM114.082,95.938c-.148,0-1.375,0-1.729-1.434-.067-.177-.117-.506-.117-.961,0-1.61.957-2.22,1.764-2.22.971,0,1.914.799,1.861,2.286-.036.981-.47,2.33-1.779,2.33ZM123.091,89.909h1.85l-1.909,6.551-.423,1.413c-.503,1.574-1.065,2.128-2.469,2.128-.571,0-.87-.056-1.076-.073v-1.585c.167.021.3.04.487.04.13,0,.524,0,.803-.199.207-.14.431-.459.431-.616l-2.714-7.658h1.918l1.678,5.608,1.423-5.608ZM175.742,82.128l4.953,15.654c.018.048-.016.091-.065.091h-4.69c-.066,0-.112-.043-.132-.091l-2.423-8.37-4.476,7.319c-.017.039-.082.086-.14.086h-2.163c-.054,0-.12-.048-.14-.086l-4.475-7.319-2.427,8.37c-.026.048-.07.091-.135.091h-4.673c-.067,0-.094-.043-.085-.091l4.955-15.654c.018-.053.07-.093.118-.093h1.751c.065,0,.14.028.17.084l6.017,9.336,6.03-9.336c.037-.056.082-.084.138-.084h1.771c.055,0,.114.039.119.093ZM154.982,89.954c0,4.493-6.067,8.145-13.536,8.145s-13.547-3.652-13.547-8.145,6.057-8.134,13.547-8.134c5.054,0,9.463,1.677,11.802,4.148v.008c.019.011.019.039.019.066,0,.048-.036.091-.091.091h-5.45c-.026,0-.048,0-.065-.005-.008,0-.008-.009-.008-.009-1.51-1.246-3.735-2.034-6.207-2.034-4.551,0-8.236,2.634-8.236,5.869s3.685,5.871,8.236,5.871c3.789,0,6.982-1.846,7.938-4.343h-7.938c-.721,0-1.291-.574-1.291-1.265,0-.71.571-1.284,1.291-1.284h13.339c.052,0,.102.017.102.075v.009c.065.301.095.61.095.937ZM193.942,81.82c-7.482,0-13.547,3.643-13.547,8.134s6.065,8.145,13.547,8.145,13.527-3.652,13.527-8.145-6.044-8.134-13.527-8.134ZM193.942,95.825c-4.549,0-8.239-2.632-8.239-5.871s3.69-5.869,8.239-5.869,8.218,2.634,8.218,5.869-3.686,5.871-8.218,5.871Z"/></svg>